<svg xmlns="http://www.w3.org/2000/svg" width="37" height="37" viewBox="0 0 37 37">
    <g fill="none" fill-rule="evenodd">
        <path fill="#FFE385" d="M36.963 18.482c0 10.207-8.274 18.481-18.481 18.481C8.274 36.963 0 28.69 0 18.482 0 8.274 8.274 0 18.482 0c10.207 0 18.481 8.274 18.481 18.482"/>
        <path fill="#19223C" d="M23.755 26.408c-.677-1.633-2.788-2.774-5.134-2.774-2.345 0-4.456 1.14-5.133 2.774-.18.432-.697.645-1.158.478-.46-.169-.687-.656-.508-1.088.953-2.3 3.685-3.844 6.8-3.844 3.113 0 5.846 1.545 6.799 3.844.179.432-.049.92-.508 1.088a.938.938 0 0 1-.325.057.895.895 0 0 1-.833-.535z"/>
        <path fill="#FFF" stroke="#FFF" stroke-width=".5" d="M9.122 12.377l.032.066 6.868 2.48a3.92 3.92 0 1 1-6.9-2.546zm11.757 2.57l6.935-2.504.007-.015a3.92 3.92 0 1 1-6.943 2.52z"/>
        <path fill="#19223C" d="M26.865 14.843a2.147 2.147 0 1 1-4.294 0 2.147 2.147 0 0 1 4.294 0"/>
        <path fill="#19223C" d="M19.789 15.601a.84.84 0 0 1 .38-1.125l8.198-4.099a.84.84 0 1 1 .744 1.506l-8.197 4.1a.84.84 0 0 1-1.125-.38zM17.48 15.601a.84.84 0 0 0-.382-1.125l-8.197-4.099a.84.84 0 1 0-.745 1.506l8.198 4.1a.84.84 0 0 0 1.125-.38z"/>
        <path fill="#19223C" d="M10.157 14.843a2.147 2.147 0 1 0 4.294 0 2.147 2.147 0 0 0-4.294 0"/>
    </g>
</svg>
