<svg xmlns="http://www.w3.org/2000/svg" width="37" height="37" viewBox="0 0 37 37">
    <g fill="none" fill-rule="evenodd">
        <path fill="#FFE385" d="M36.464 18.232c0 10.07-8.163 18.232-18.232 18.232C8.162 36.464 0 28.3 0 18.232 0 8.162 8.163 0 18.232 0 28.3 0 36.464 8.163 36.464 18.232"/>
        <path fill="#FFF" stroke="#FFF" stroke-width=".5" d="M15.806 13.608a3.867 3.867 0 1 1-7.735 0 3.867 3.867 0 0 1 7.735 0"/>
        <path fill="#19223C" d="M14.255 13.807a2.118 2.118 0 1 1-4.235 0 2.118 2.118 0 0 1 4.235 0"/>
        <path fill="#FFF" stroke="#FFF" stroke-width=".5" d="M28.052 13.608a3.867 3.867 0 1 1-7.734 0 3.867 3.867 0 0 1 7.734 0"/>
        <path fill="#19223C" d="M26.115 13.807a2.118 2.118 0 1 1-4.236 0 2.118 2.118 0 0 1 4.236 0M10.169 24.202a.829.829 0 0 1 0-1.657h16.17a.829.829 0 0 1 0 1.657H10.17z"/>
    </g>
</svg>
