<svg xmlns="http://www.w3.org/2000/svg" width="94" height="28" viewBox="0 0 94 28">
    <g fill="none" fill-rule="evenodd">
        <path fill="#39C881" d="M65.994 6.49l-1.49 1.489-3.289-3.29 4.72-4.72.06.058V0h4.651v20.677h-4.652V6.489z"/>
        <path fill="#222F51" d="M16.164 17.462c-.023-3.101-2.781-5.797-5.913-5.779-3.145.017-5.926 2.763-5.887 5.812.041 3.21 2.811 5.919 5.993 5.857 3.158-.062 5.83-2.772 5.807-5.89zm4.422-.446c-.026 5.21-2.999 9.057-7.898 10.316C7.183 28.745 1.3 25.113.208 19.625-.952 13.811 2.862 8.42 8.657 7.54c2.526-.384 4.777.017 7.007 1.85V0h4.92v17.016zM22.917 27.675h4.575V8.098h-4.575zM25.204 4.606a2.295 2.295 0 0 0 2.288-2.303A2.295 2.295 0 0 0 25.204 0a2.295 2.295 0 0 0-2.287 2.303 2.295 2.295 0 0 0 2.287 2.303"/>
        <path fill="#39C881" d="M44.33 27.351a2.295 2.295 0 0 0 2.288-2.303 2.296 2.296 0 0 0-2.288-2.303 2.295 2.295 0 0 0-2.287 2.303 2.295 2.295 0 0 0 2.287 2.303"/>
        <path fill="#222F51" d="M52.508 23.117c-3.214 0-5.82-2.623-5.82-5.86 0-3.238 2.606-5.86 5.82-5.86 3.215 0 5.82 2.622 5.82 5.86 0 3.237-2.605 5.86-5.82 5.86m0-16.225c-5.685 0-10.293 4.641-10.293 10.365 0 1.428.287 2.788.806 4.027a3.886 3.886 0 0 1 1.164-.177c2.158 0 3.908 1.761 3.908 3.935 0 .509-.099.994-.274 1.44a10.182 10.182 0 0 0 4.69 1.139c5.684 0 10.292-4.64 10.292-10.364 0-5.724-4.608-10.365-10.293-10.365"/>
        <path fill="#222F51" d="M40.636 25.125c0-.953.333-1.824.883-2.5-3.043-.343-3.94-2.334-3.94-5.021v-5.168h4.094a12.149 12.149 0 0 1 3.348-4.473H37.58V0h-4.83v7.963h-2.595v4.473h2.596v5.168c0 4.54 1.916 9.601 8.78 10.034a3.95 3.95 0 0 1-.894-2.513"/>
        <path fill="#39C881" d="M82.906 20.729c-5.724 0-10.364-4.64-10.364-10.365C72.542 4.64 77.182 0 82.906 0c5.724 0 10.365 4.64 10.365 10.364 0 5.724-4.64 10.365-10.365 10.365zm0-4.507a5.858 5.858 0 1 0 0-11.716 5.858 5.858 0 0 0 0 11.716z"/>
        <text fill="#39C881" font-family="Gilroy-Bold" font-size="6.892" font-weight="bold" letter-spacing="2.585">
            <tspan x="66.338" y="27.4">ANOS</tspan>
        </text>
    </g>
</svg>
