<svg xmlns="http://www.w3.org/2000/svg" xmlns:xlink="http://www.w3.org/1999/xlink" width="37" height="37" viewBox="0 0 37 37">
    <defs>
        <path id="a" d="M8.072 21.431c0 5.688 4.61 10.299 10.298 10.299 5.687 0 10.298-4.611 10.298-10.299"/>
    </defs>
    <g fill="none" fill-rule="evenodd">
        <g>
            <path fill="#FFE385" d="M36.464 18.232c0 10.069-8.163 18.232-18.232 18.232C8.162 36.464 0 28.3 0 18.232 0 8.162 8.163 0 18.232 0c10.07 0 18.232 8.163 18.232 18.232"/>
            <mask id="b" fill="#fff">
                <use xlink:href="#a"/>
            </mask>
            <use fill="#19223C" xlink:href="#a"/>
            <path fill="#F46947" d="M8.072 34.235s2.505 1.948 10.007 1.948 10.31-1.948 10.31-1.948L18.08 24.77 8.072 34.235z" mask="url(#b)" transform="rotate(-180 18.23 30.477)"/>
        </g>
        <path fill="#F46947" d="M28.696 9.367a3.128 3.128 0 0 0-3.131.612 3.129 3.129 0 0 0-3.133-.612c-2.293.803-2.857 3.789-1.014 5.373l4.147 3.566 4.146-3.566c1.843-1.584 1.28-4.57-1.015-5.373M14.501 9.367a3.128 3.128 0 0 0-3.132.612 3.128 3.128 0 0 0-3.131-.612c-2.294.803-2.858 3.789-1.015 5.373l4.146 3.566 4.147-3.566c1.843-1.584 1.28-4.57-1.015-5.373"/>
    </g>
</svg>
