<svg xmlns="http://www.w3.org/2000/svg" width="38" height="37" viewBox="0 0 38 37">
    <g fill="none" fill-rule="evenodd">
        <path fill="#FFE385" d="M37.342 18.619c0 10.069-8.272 18.232-18.475 18.232C8.663 36.85.392 28.688.392 18.619.392 8.549 8.663.387 18.867.387c10.203 0 18.475 8.162 18.475 18.232"/>
        <path fill="#19223C" d="M24.139 26.438c-.677-1.611-2.788-2.737-5.132-2.737-2.345 0-4.456 1.126-5.132 2.737-.18.426-.697.636-1.157.471-.46-.166-.687-.646-.508-1.073.952-2.268 3.684-3.792 6.797-3.792 3.112 0 5.844 1.524 6.797 3.792.179.427-.049.907-.509 1.073a.95.95 0 0 1-.324.057c-.357 0-.695-.2-.832-.528z"/>
        <path fill="#FFF" stroke="#FFF" stroke-width=".5" d="M16.548 15.108c0 2.136-1.754 3.868-3.918 3.868-2.165 0-3.92-1.732-3.92-3.868 0-2.135 1.755-3.866 3.92-3.866 2.164 0 3.918 1.73 3.918 3.866"/>
        <path fill="#19223C" d="M14.977 15.03c0 1.169-.96 2.117-2.146 2.117-1.185 0-2.146-.948-2.146-2.118s.961-2.117 2.146-2.117 2.146.948 2.146 2.117"/>
        <path fill="#FFF" stroke="#FFF" stroke-width=".5" d="M28.958 15.108c0 2.136-1.754 3.868-3.919 3.868-2.164 0-3.918-1.732-3.918-3.868 0-2.135 1.754-3.866 3.918-3.866 2.165 0 3.919 1.73 3.919 3.866"/>
        <path fill="#19223C" d="M26.995 15.03c0 1.169-.96 2.117-2.146 2.117-1.185 0-2.146-.948-2.146-2.118s.961-2.117 2.146-2.117 2.146.948 2.146 2.117"/>
    </g>
</svg>
